<svg width="182" height="43" viewBox="0 0 182 43" fill="none" xmlns="http://www.w3.org/2000/svg">
<g clip-path="url(#clip0_1_40)">
<g style="mix-blend-mode:soft-light">
<path fill-rule="evenodd" clip-rule="evenodd" d="M20.9891 0.0785796L21.0286 0L25.9848 10.2257L22.9272 12.3742L20.96 8.31543L5.9135 38.2757C6.99062 38.4206 8.11589 38.3296 9.21743 37.9668C10.981 37.3859 12.0642 36.1429 12.9478 34.6641C13.2433 34.1695 14.2946 32.0477 15.6335 29.3454C18.2977 23.9682 22.1008 16.2922 23.3553 14.5629C25.2401 11.9645 28.926 10.6367 31.8778 10.5713C35.3216 10.495 38.6583 12.3019 40.746 14.7136L37.9578 17.1271C36.5585 15.5105 34.4818 14.512 32.1828 14.5629C30.765 14.5943 29.4647 14.7734 28.3541 15.4882C27.4249 15.9754 26.2071 17.3241 25.7214 18.1392L16.7382 36.0265C15.4504 38.51 13.2403 40.5243 10.3712 41.4694C8.8005 41.9867 7.19652 42.1339 5.65443 41.9592H0.0819473L0.158539 41.8319H0L20.9793 0.0583801L20.9891 0.0785796ZM41.2584 41.8319H37.2049L26.7237 20.2072L29.3298 17.1271L41.2951 41.8141L41.2584 41.8319ZM29.2557 42.3643C24.886 42.3643 21.0837 40.027 18.8776 36.5428L21.1818 32.9649C22.5049 36.3585 25.6547 38.6766 29.2557 38.6766C30.5303 38.6766 31.7381 38.389 32.8282 37.8714L34.41 41.2026C32.8397 41.9483 31.0928 42.3643 29.2557 42.3643Z" fill="black" fill-opacity="0.2"/>
</g>
<path fill-rule="evenodd" clip-rule="evenodd" d="M20.9891 0.0785796L21.0286 0L25.9848 10.2257L22.9272 12.3742L20.96 8.31543L5.9135 38.2757C6.99062 38.4206 8.11589 38.3296 9.21743 37.9668C10.981 37.3859 12.0642 36.1429 12.9478 34.6641C13.2433 34.1695 14.2946 32.0477 15.6335 29.3454C18.2977 23.9682 22.1008 16.2922 23.3553 14.5629C25.2401 11.9645 28.926 10.6367 31.8778 10.5713C35.3216 10.495 38.6583 12.3019 40.746 14.7136L37.9578 17.1271C36.5585 15.5105 34.4818 14.512 32.1828 14.5629C30.765 14.5943 29.4647 14.7734 28.3541 15.4882C27.4249 15.9754 26.2071 17.3241 25.7214 18.1392L16.7382 36.0265C15.4504 38.51 13.2403 40.5243 10.3712 41.4694C8.8005 41.9867 7.19652 42.1339 5.65443 41.9592H0.0819473L0.158539 41.8319H0L20.9793 0.0583801L20.9891 0.0785796ZM41.2584 41.8319H37.2049L26.7237 20.2072L29.3298 17.1271L41.2951 41.8141L41.2584 41.8319ZM29.2557 42.3643C24.886 42.3643 21.0837 40.027 18.8776 36.5428L21.1818 32.9649C22.5049 36.3585 25.6547 38.6766 29.2557 38.6766C30.5303 38.6766 31.7381 38.389 32.8282 37.8714L34.41 41.2026C32.8397 41.9483 31.0928 42.3643 29.2557 42.3643Z" fill="white"/>
<path d="M161.822 28.1691C161.822 25.2309 162.412 22.7558 163.595 20.7438C164.776 18.7318 166.437 17.2148 168.576 16.1928C170.716 15.1389 173.223 14.612 176.097 14.612C178.429 14.612 180.393 14.9473 181.99 15.618V20.169H181.607C180.968 19.8496 180.201 19.5941 179.307 19.4024C178.413 19.2108 177.423 19.115 176.337 19.115C173.559 19.115 171.355 19.8815 169.726 21.4145C168.097 22.9155 167.283 25.167 167.283 28.1691C167.283 31.1392 168.097 33.3907 169.726 34.9236C171.355 36.4566 173.559 37.2231 176.337 37.2231C177.423 37.2231 178.413 37.1113 179.307 36.8878C180.201 36.6642 180.968 36.4087 181.607 36.1213H181.99V40.7201C180.393 41.3908 178.429 41.7261 176.097 41.7261C173.159 41.7261 170.621 41.1992 168.481 40.1453C166.341 39.0914 164.696 37.5584 163.547 35.5464C162.396 33.5344 161.822 31.0753 161.822 28.1691Z" fill="white"/>
<path d="M144.97 41.8698C141.138 41.8698 138.248 41.1992 136.3 39.8579C134.352 38.5165 133.378 36.4247 133.378 33.5823C133.378 31.73 133.841 30.197 134.767 28.9834C135.693 27.7699 137.002 26.8596 138.695 26.2529C140.388 25.6461 142.368 25.3427 144.635 25.3427C146.264 25.3427 147.637 25.4864 148.754 25.7738C149.873 26.0293 150.863 26.2848 151.725 26.5403V30.3248C150.958 30.0693 149.984 29.8458 148.802 29.6541C147.653 29.4306 146.567 29.3188 145.545 29.3188C143.182 29.3188 141.41 29.6381 140.227 30.2769C139.078 30.8837 138.503 31.9855 138.503 33.5823C138.503 35.0833 139.062 36.1692 140.18 36.8399C141.298 37.4785 142.91 37.7979 145.018 37.7979C146.232 37.7979 147.397 37.7021 148.515 37.5105C149.633 37.2869 150.671 36.9676 151.629 36.5524L150.719 38.1333C150.623 37.8139 150.543 37.4785 150.479 37.1273C150.416 36.7759 150.352 36.4247 150.288 36.0734C150.256 35.6901 150.224 35.275 150.192 34.8278C150.192 34.3808 150.192 33.8698 150.192 33.2949V25.5343C150.192 23.682 149.921 22.2928 149.378 21.3666C148.867 20.4085 148.084 19.7857 147.031 19.4983C145.976 19.179 144.651 19.0192 143.054 19.0192C141.777 19.0192 140.499 19.179 139.222 19.4983C137.944 19.7857 136.922 20.1051 136.156 20.4564H135.725V15.9533C136.874 15.5062 138.152 15.1709 139.557 14.9473C140.994 14.7238 142.384 14.612 143.725 14.612C145.417 14.612 146.966 14.7557 148.372 15.0431C149.809 15.3306 151.054 15.8735 152.108 16.6719C153.194 17.4384 154.024 18.5402 154.599 19.9773C155.206 21.3825 155.51 23.2349 155.51 25.5343V31.714C155.51 32.3528 155.51 33.1831 155.51 34.2051C155.542 35.2271 155.589 36.2331 155.653 37.2231C155.717 38.1812 155.812 38.9476 155.941 39.5225L155.797 39.9058C154.743 40.289 153.577 40.6403 152.3 40.9596C151.022 41.2471 149.745 41.4707 148.468 41.6303C147.19 41.79 146.024 41.8698 144.97 41.8698Z" fill="white"/>
<path d="M116.527 41.8698C112.694 41.8698 109.804 41.1992 107.856 39.8579C105.908 38.5165 104.934 36.4247 104.934 33.5823C104.934 31.73 105.397 30.197 106.323 28.9834C107.249 27.7699 108.559 26.8596 110.251 26.2529C111.944 25.6461 113.924 25.3427 116.192 25.3427C117.82 25.3427 119.193 25.4864 120.311 25.7738C121.429 26.0293 122.419 26.2848 123.282 26.5403V30.3248C122.515 30.0693 121.541 29.8458 120.36 29.6541C119.209 29.4306 118.124 29.3188 117.102 29.3188C114.739 29.3188 112.966 29.6381 111.784 30.2769C110.634 30.8837 110.06 31.9855 110.06 33.5823C110.06 35.0833 110.619 36.1692 111.736 36.8399C112.854 37.4785 114.467 37.7979 116.575 37.7979C117.788 37.7979 118.954 37.7021 120.072 37.5105C121.189 37.2869 122.228 36.9676 123.186 36.5524L122.276 38.1333C122.18 37.8139 122.099 37.4785 122.036 37.1273C121.972 36.7759 121.908 36.4247 121.844 36.0734C121.813 35.6901 121.781 35.275 121.749 34.8278C121.749 34.3808 121.749 33.8698 121.749 33.2949V25.5343C121.749 23.682 121.477 22.2928 120.934 21.3666C120.423 20.4085 119.641 19.7857 118.587 19.4983C117.533 19.179 116.208 19.0192 114.611 19.0192C113.333 19.0192 112.056 19.179 110.778 19.4983C109.501 19.7857 108.479 20.1051 107.712 20.4564H107.281V15.9533C108.431 15.5062 109.708 15.1709 111.114 14.9473C112.551 14.7238 113.94 14.612 115.281 14.612C116.974 14.612 118.523 14.7557 119.928 15.0431C121.365 15.3306 122.611 15.8735 123.665 16.6719C124.751 17.4384 125.581 18.5402 126.156 19.9773C126.762 21.3825 127.066 23.2349 127.066 25.5343V31.714C127.066 32.3528 127.066 33.1831 127.066 34.2051C127.098 35.2271 127.146 36.2331 127.209 37.2231C127.273 38.1812 127.369 38.9476 127.497 39.5225L127.353 39.9058C126.299 40.289 125.134 40.6403 123.856 40.9596C122.578 41.2471 121.302 41.4707 120.024 41.6303C118.746 41.79 117.581 41.8698 116.527 41.8698Z" fill="white"/>
<path d="M85.9688 41.8699C84.3082 41.8699 82.6316 41.6942 80.939 41.3429C79.2464 41.0235 77.7773 40.6244 76.5317 40.1453L76.3883 39.762C76.5157 39.1872 76.5958 38.4207 76.6278 37.4627C76.6912 36.4726 76.7232 35.4666 76.7232 34.4446C76.7552 33.4226 76.7712 32.5923 76.7712 31.9536V13.5581C76.7712 13.0791 76.7712 12.4722 76.7712 11.7378C76.7712 10.9713 76.7552 10.1729 76.7232 9.3425C76.6912 8.51214 76.6438 7.72969 76.5798 6.99516C76.5478 6.26061 76.4837 5.68575 76.3883 5.27058L76.4837 4.88734H82.1366V33.8698C82.1366 34.8279 82.1046 35.6582 82.0405 36.3608C81.9772 37.0634 81.8971 37.6543 81.801 38.1333L80.891 36.6961C81.5615 36.8878 82.3601 37.0794 83.2861 37.271C84.2442 37.4307 85.2342 37.5106 86.2564 37.5106C89.1305 37.5106 91.2548 36.6961 92.6278 35.0674C94.0008 33.4386 94.6873 31.1072 94.6873 28.0733C94.6873 25.2628 93.9688 23.0593 92.5317 21.4624C91.1267 19.8336 89.0351 19.0193 86.2564 19.0193C85.5218 19.0193 84.8673 19.0512 84.2922 19.1151C83.7178 19.1789 83.1427 19.2908 82.5676 19.4504C81.9932 19.6101 81.338 19.8177 80.6034 20.0731V15.9533C81.7537 15.4743 82.8712 15.139 83.9573 14.9474C85.0748 14.7238 86.129 14.6121 87.119 14.6121C89.8651 14.6121 92.2129 15.1549 94.161 16.2408C96.1091 17.3266 97.5942 18.8756 98.6156 20.8876C99.6377 22.8995 100.149 25.2789 100.149 28.0254C100.149 30.9955 99.5577 33.5184 98.3761 35.5943C97.2266 37.6383 95.5981 39.2032 93.4898 40.289C91.3822 41.3429 88.875 41.8699 85.9688 41.8699Z" fill="white"/>
<path d="M57.9088 41.8698C54.0765 41.8698 51.1862 41.1992 49.2381 39.8579C47.2899 38.5165 46.3159 36.4247 46.3159 33.5823C46.3159 31.73 46.779 30.197 47.7051 28.9834C48.6313 27.7699 49.9407 26.8596 51.6333 26.2529C53.326 25.6461 55.306 25.3427 57.5735 25.3427C59.2023 25.3427 60.5756 25.4864 61.6934 25.7738C62.8111 26.0293 63.8011 26.2848 64.6635 26.5403V30.3248C63.897 30.0693 62.923 29.8458 61.7413 29.6541C60.5915 29.4306 59.5057 29.3188 58.4838 29.3188C56.1204 29.3188 54.348 29.6381 53.1663 30.2769C52.0166 30.8837 51.4417 31.9855 51.4417 33.5823C51.4417 35.0833 52.0006 36.1692 53.1184 36.8399C54.2362 37.4785 55.849 37.7979 57.9568 37.7979C59.1704 37.7979 60.3361 37.7021 61.4538 37.5105C62.5716 37.2869 63.6095 36.9676 64.5676 36.5524L63.6574 38.1333C63.5616 37.8139 63.4818 37.4785 63.4179 37.1273C63.3541 36.7759 63.2901 36.4247 63.2263 36.0734C63.1943 35.6901 63.1625 35.275 63.1305 34.8278C63.1305 34.3808 63.1305 33.8698 63.1305 33.2949V25.5343C63.1305 23.682 62.859 22.2928 62.3161 21.3666C61.8051 20.4085 61.0227 19.7857 59.9688 19.4983C58.9149 19.179 57.5895 19.0192 55.9927 19.0192C54.7152 19.0192 53.4378 19.179 52.1603 19.4983C50.8828 19.7857 49.8609 20.1051 49.0944 20.4564H48.6633V15.9533C49.813 15.5062 51.0904 15.1709 52.4957 14.9473C53.9328 14.7238 55.322 14.612 56.6634 14.612C58.356 14.612 59.9049 14.7557 61.3101 15.0431C62.7473 15.3306 63.9928 15.8735 65.0467 16.6719C66.1326 17.4384 66.9629 18.5402 67.5377 19.9773C68.1445 21.3825 68.448 23.2349 68.448 25.5343V31.714C68.448 32.3528 68.448 33.1831 68.448 34.2051C68.4798 35.2271 68.5277 36.2331 68.5917 37.2231C68.6555 38.1812 68.7513 38.9476 68.8791 39.5225L68.7354 39.9058C67.6814 40.289 66.5158 40.6403 65.2383 40.9596C63.9609 41.2471 62.6834 41.4707 61.4059 41.6303C60.1284 41.79 58.9628 41.8698 57.9088 41.8698Z" fill="white"/>
</g>
<defs>
<clipPath id="clip0_1_40">
<rect width="182" height="42.952" fill="white"/>
</clipPath>
</defs>
</svg>
