<svg width="20" height="19" viewBox="0 0 20 19" fill="none" xmlns="http://www.w3.org/2000/svg">
<path d="M18.4814 18.5185C16.3966 18.5185 14.3063 18.0386 12.2106 17.0787C10.1149 16.1188 8.18399 14.7558 6.41779 12.9896C4.66625 11.2234 3.30707 9.28627 2.34024 7.17824C1.37265 5.06944 0.888855 2.98534 0.888855 0.925926V0H6.02659L7.00807 4.72569L3.8877 7.63079C4.41548 8.54591 4.96216 9.38194 5.52774 10.1389C6.09333 10.8958 6.68245 11.5783 7.2951 12.1863C7.91393 12.8345 8.61146 13.4402 9.3877 14.0035C10.1639 14.5667 11.0497 15.1223 12.0451 15.6701L15.0671 12.5359L19.4074 13.4109V18.5185H18.4814Z" fill="#00499C"/>
</svg>
