<svg width="20" height="20" viewBox="0 0 20 20" fill="none" xmlns="http://www.w3.org/2000/svg">
<path fill-rule="evenodd" clip-rule="evenodd" d="M1.52588e-05 11.9332C1.52588e-05 6.27093 4.485 1.66666 10.0002 1.66666H9.99984C15.5152 1.66666 20 6.27111 20 11.9332C20 14.0534 19.3626 16.0292 18.2863 17.6667L17.2782 16.8491C18.0698 15.6132 18.5774 14.159 18.6895 12.5955H16.129V11.2709H18.6895C18.5494 9.2953 17.778 7.50635 16.5928 6.09624L14.7884 7.94871L13.8811 7.00686L15.6855 5.15439C14.3129 3.93991 12.5672 3.15565 10.6451 3.01196V5.64063H9.3549V3.01196C7.43281 3.1559 5.6871 3.9402 4.31449 5.15439L6.1189 7.00686L5.21163 7.94871L3.40722 6.09624C2.22206 7.50635 1.45071 9.2953 1.31052 11.2709H3.87099V12.5955H1.31052C1.42256 14.159 1.93023 15.6134 2.72184 16.8491L1.71375 17.6667C0.637469 16.0293 1.52588e-05 14.0534 1.52588e-05 11.9332ZM8.59901 14.4164L14.0325 8.0726L11.4014 16.0723C10.9561 16.8642 9.96511 17.1401 9.19372 16.6829C8.42237 16.2257 8.1537 15.2084 8.59901 14.4164Z" fill="#00499C"/>
</svg>
